<svg xmlns="http://www.w3.org/2000/svg" xmlns:xlink="http://www.w3.org/1999/xlink" width="64" height="64" viewBox="0 0 64 64"><defs><style>.a,.b{fill:#fff;}.a{opacity:0;}.c{fill:url(#a);}</style><linearGradient id="a" x1="1" y1="-1.598" x2="-1.114" y2="-1.502" gradientUnits="objectBoundingBox"><stop offset="0" stop-color="#fff"/><stop offset="0.58" stop-color="#010101"/><stop offset="1" stop-color="#010101"/></linearGradient></defs><g transform="translate(-172.001 -166)"><g transform="translate(172.001 166)"><rect class="a" width="64" height="64"/><path class="b" d="M19.658,16.232A20.04,20.04,0,0,0,0,0V4A16.046,16.046,0,0,1,15.73,16.986l.518,2.692,2.7.49A11,11,0,0,1,17.016,42H0v4H17.016a15,15,0,0,0,2.64-29.768Z" transform="translate(31.998 8.667)"/><g transform="translate(3.998 14.667)"><path class="c" d="M0,0H12V4H0Z" transform="translate(12 32)"/><path class="c" d="M0,0H4V4H0Z" transform="translate(4 32)"/><path class="c" d="M0,0H16V4H0Z" transform="translate(8 24)"/><path class="c" d="M0,0H4V4H0Z" transform="translate(0 24)"/><path class="c" d="M0,0H12V4H0Z" transform="translate(12 16)"/><path class="c" d="M0,0H4V4H0Z" transform="translate(4 16)"/><path class="c" d="M0,0H8V4H0Z" transform="translate(16 8)"/><path class="c" d="M0,0H4V4H0Z" transform="translate(8 8)"/><path class="c" d="M0,0H4V4H0Z" transform="translate(20)"/></g></g></g></svg>