<svg xmlns="http://www.w3.org/2000/svg" width="10.417" height="19.268" viewBox="0 0 10.417 19.268"><defs><style>.a{fill:#0f61fd;}</style></defs><g transform="translate(-22.077)"><path class="a" d="M32.1,0,29.6,0a4.388,4.388,0,0,0-4.621,4.742V6.928H22.47a.393.393,0,0,0-.393.393v3.168a.393.393,0,0,0,.393.393h2.512v7.993a.393.393,0,0,0,.393.393h3.278a.393.393,0,0,0,.393-.393V10.882h2.937a.393.393,0,0,0,.393-.393V7.321a.393.393,0,0,0-.393-.393H29.046V5.075c0-.891.212-1.343,1.373-1.343H32.1a.393.393,0,0,0,.393-.393V.4A.393.393,0,0,0,32.1,0Z" transform="translate(0)"/></g></svg>