<svg xmlns="http://www.w3.org/2000/svg" width="17.341" height="17.341" viewBox="0 0 17.341 17.341"><defs><style>.a{fill:#0f61fd;}</style></defs><path class="a" d="M4.064,105.491a4.578,4.578,0,0,1,.648-2.353v-2.923H1.789a8.675,8.675,0,0,0,0,10.553H4.712v-2.923A4.578,4.578,0,0,1,4.064,105.491Z" transform="translate(0 -96.821)"/><path class="a" d="M198.032,373.606,196,375.638l2.032,2.032a8.6,8.6,0,0,0,5.276-1.789v-2.92h-2.92A4.605,4.605,0,0,1,198.032,373.606Z" transform="translate(-189.362 -360.329)"/><path class="a" d="M55.746,325.477,52.823,328.4a8.811,8.811,0,0,0,.75.855,8.614,8.614,0,0,0,6.131,2.54V327.73A4.608,4.608,0,0,1,55.746,325.477Z" transform="translate(-51.034 -314.453)"/><path class="a" d="M264.671,199.311a8.748,8.748,0,0,0-.142-1.571l-.076-.417H256v4.064h4.113a4.586,4.586,0,0,1-1.757,1.884l2.92,2.92a8.8,8.8,0,0,0,.855-.75A8.614,8.614,0,0,0,264.671,199.311Z" transform="translate(-247.329 -190.641)"/><path class="a" d="M201.289,5.413l.359.359L204.522,2.9l-.359-.359A8.614,8.614,0,0,0,198.032,0L196,2.032l2.032,2.032A4.576,4.576,0,0,1,201.289,5.413Z" transform="translate(-189.362 0)"/><path class="a" d="M59.7,4.064V0a8.614,8.614,0,0,0-6.131,2.54,8.8,8.8,0,0,0-.75.855l2.923,2.923A4.608,4.608,0,0,1,59.7,4.064Z" transform="translate(-51.033 0)"/></svg>