<svg xmlns="http://www.w3.org/2000/svg" width="18.707" height="19.658" viewBox="0 0 18.707 19.658"><defs><style>.a{fill:#0f61fd;}</style></defs><path class="a" d="M21.312,4H5.4A1.423,1.423,0,0,0,4,5.421V22.237a1.415,1.415,0,0,0,1.4,1.421H21.312a1.415,1.415,0,0,0,1.4-1.421V5.421A1.423,1.423,0,0,0,21.312,4ZM9.542,20.767H6.8V11.393H9.542ZM8.2,10.087A1.656,1.656,0,0,1,6.588,8.428a1.692,1.692,0,0,1,.456-1.22A1.517,1.517,0,0,1,8.2,6.727a1.709,1.709,0,0,1,0,3.393ZM19.963,20.709H17.251V16.125c0-1.093,0-2.514-1.45-2.514s-1.668,1.2-1.668,2.407V20.66H11.358V11.393h2.588v1.232H14A2.869,2.869,0,0,1,16.643,11.1c2.8,0,3.321,1.972,3.321,4.477Z" transform="translate(-4 -4)"/></svg>