<svg xmlns="http://www.w3.org/2000/svg" width="55.626" height="43.279" viewBox="0 0 55.626 43.279"><defs><style>.a{fill:#231f20;}.b{fill:#f79410;}.c{fill:#ff5f00;}.d{fill:#eb001b;}.e{fill:#f79e1b;}</style></defs><g transform="translate(0)"><g transform="translate(2.83 36.634)"><path class="a" d="M-134.02-15.716v.113h.1a.109.109,0,0,0,.057-.014.049.049,0,0,0,.021-.043.048.048,0,0,0-.021-.042.1.1,0,0,0-.057-.014Zm.1-.079a.192.192,0,0,1,.125.036.12.12,0,0,1,.044.1.113.113,0,0,1-.035.086.171.171,0,0,1-.1.042l.138.159h-.107l-.128-.157h-.042v.157h-.09v-.421Zm-.027.566a.332.332,0,0,0,.137-.028.359.359,0,0,0,.112-.075.351.351,0,0,0,.075-.113.36.36,0,0,0,.027-.138.36.36,0,0,0-.027-.138.364.364,0,0,0-.075-.113.359.359,0,0,0-.112-.075.35.35,0,0,0-.137-.026.365.365,0,0,0-.139.026.356.356,0,0,0-.114.075.343.343,0,0,0-.074.113.341.341,0,0,0-.027.138.341.341,0,0,0,.027.138.332.332,0,0,0,.074.113.356.356,0,0,0,.114.075.346.346,0,0,0,.139.028m0-.808a.454.454,0,0,1,.18.036.458.458,0,0,1,.146.1.445.445,0,0,1,.1.144.433.433,0,0,1,.036.176.433.433,0,0,1-.036.176.47.47,0,0,1-.1.144.5.5,0,0,1-.146.1.454.454,0,0,1-.18.036.461.461,0,0,1-.183-.036.475.475,0,0,1-.148-.1.47.47,0,0,1-.1-.144.433.433,0,0,1-.036-.176.433.433,0,0,1,.036-.176.445.445,0,0,1,.1-.144.44.44,0,0,1,.148-.1.461.461,0,0,1,.183-.036m-42.6-1.621a1.37,1.37,0,0,1,1.385-1.462,1.369,1.369,0,0,1,1.375,1.462,1.369,1.369,0,0,1-1.375,1.462,1.37,1.37,0,0,1-1.385-1.462m3.7,0v-2.283h-.993v.554a1.731,1.731,0,0,0-1.442-.669,2.288,2.288,0,0,0-2.284,2.4,2.288,2.288,0,0,0,2.284,2.4,1.731,1.731,0,0,0,1.442-.669v.554h.993Zm33.546,0a1.37,1.37,0,0,1,1.385-1.462,1.368,1.368,0,0,1,1.375,1.462A1.368,1.368,0,0,1-137.91-16.2a1.37,1.37,0,0,1-1.385-1.462m3.7,0v-4.116h-.994v2.388a1.731,1.731,0,0,0-1.442-.669,2.288,2.288,0,0,0-2.284,2.4,2.288,2.288,0,0,0,2.284,2.4,1.731,1.731,0,0,0,1.442-.669v.554h.994Zm-24.921-1.509a1.134,1.134,0,0,1,1.156,1.107h-2.369a1.176,1.176,0,0,1,1.214-1.107m.02-.889a2.231,2.231,0,0,0-2.274,2.4,2.252,2.252,0,0,0,2.341,2.4,2.775,2.775,0,0,0,1.872-.64l-.486-.736a2.183,2.183,0,0,1-1.328.478,1.268,1.268,0,0,1-1.366-1.118h3.39c.01-.124.02-.248.02-.382a2.19,2.19,0,0,0-2.168-2.4m11.987,2.4a1.37,1.37,0,0,1,1.385-1.462,1.369,1.369,0,0,1,1.375,1.462,1.369,1.369,0,0,1-1.375,1.462,1.37,1.37,0,0,1-1.385-1.462m3.7,0v-2.283h-.993v.554a1.732,1.732,0,0,0-1.442-.669,2.288,2.288,0,0,0-2.284,2.4,2.288,2.288,0,0,0,2.284,2.4,1.732,1.732,0,0,0,1.442-.669v.554h.993Zm-9.3,0a2.306,2.306,0,0,0,2.436,2.4,2.39,2.39,0,0,0,1.642-.544l-.477-.8a2.006,2.006,0,0,1-1.195.411,1.364,1.364,0,0,1-1.375-1.462,1.364,1.364,0,0,1,1.375-1.462,2.006,2.006,0,0,1,1.195.411l.477-.8a2.39,2.39,0,0,0-1.642-.544,2.306,2.306,0,0,0-2.436,2.4m12.8-2.4a1.348,1.348,0,0,0-1.2.669v-.554h-.984v4.566h.994v-2.559c0-.755.325-1.175.974-1.175a1.609,1.609,0,0,1,.621.115l.306-.936a2.114,2.114,0,0,0-.707-.125m-26.612.478a3.415,3.415,0,0,0-1.862-.478c-1.157,0-1.9.554-1.9,1.462,0,.745.554,1.2,1.575,1.347l.469.067c.544.077.8.22.8.478,0,.353-.363.554-1.041.554a2.431,2.431,0,0,1-1.519-.478l-.468.773a3.293,3.293,0,0,0,1.977.593c1.319,0,2.083-.621,2.083-1.49,0-.8-.6-1.222-1.6-1.366l-.468-.068c-.43-.057-.774-.142-.774-.448,0-.335.325-.535.869-.535a2.945,2.945,0,0,1,1.423.391Zm12.809-.478a1.344,1.344,0,0,0-1.2.669v-.554h-.984v4.566h.993v-2.559c0-.755.325-1.175.974-1.175a1.609,1.609,0,0,1,.621.115l.306-.936a2.114,2.114,0,0,0-.707-.125m-8.472.115h-1.624v-1.385h-1v1.385h-.926v.907h.926v2.083c0,1.059.411,1.69,1.585,1.69a2.33,2.33,0,0,0,1.242-.353l-.286-.851a1.838,1.838,0,0,1-.879.258c-.5,0-.658-.306-.658-.764v-2.063h1.624Zm-14.844,4.566v-2.865a1.7,1.7,0,0,0-1.8-1.815,1.768,1.768,0,0,0-1.6.812,1.676,1.676,0,0,0-1.509-.812,1.51,1.51,0,0,0-1.337.678v-.563h-.994v4.566h1v-2.531a1.069,1.069,0,0,1,1.118-1.214c.659,0,.993.43.993,1.2v2.541h1v-2.531a1.077,1.077,0,0,1,1.117-1.214c.678,0,1,.43,1,1.2v2.541Z" transform="translate(185.679 21.774)"/></g><g transform="translate(53.653 27.182)"><path class="b" d="M-3.758-1.73V-2.4h-.174l-.2.458-.2-.458h-.175v.667h.124v-.5L-4.2-1.8h.128l.188-.435v.5Zm-1.1,0v-.553h.223V-2.4h-.569v.113h.223v.553Z" transform="translate(5.207 2.397)"/></g><path class="c" d="M3358.049,2174.611H3343v-27.039h15.046Z" transform="translate(-3322.714 -2143.893)"/><path class="d" d="M-55.138-44.613a17.167,17.167,0,0,1,6.567-13.52A17.121,17.121,0,0,0-59.2-61.809a17.2,17.2,0,0,0-17.194,17.2A17.2,17.2,0,0,0-59.2-27.417a17.121,17.121,0,0,0,10.627-3.677,17.167,17.167,0,0,1-6.567-13.52" transform="translate(76.392 61.809)"/><g transform="translate(27.804)"><path class="e" d="M-72.179-44.613a17.2,17.2,0,0,1-17.194,17.2A17.126,17.126,0,0,1-100-31.093a17.165,17.165,0,0,0,6.568-13.52A17.165,17.165,0,0,0-100-58.132a17.126,17.126,0,0,1,10.628-3.677,17.2,17.2,0,0,1,17.194,17.2" transform="translate(100.001 61.809)"/></g></g></svg>